<svg width="28" height="28" viewBox="0 0 28 28" fill="none" xmlns="http://www.w3.org/2000/svg">
<path fill-rule="evenodd" clip-rule="evenodd" d="M24.5 11.8422V20.9615C24.5 23.5602 22.4107 25.6668 19.8333 25.6668H8.16667C5.58934 25.6668 3.5 23.5602 3.5 20.9615V11.8422C3.5 10.4294 4.12959 9.09141 5.21484 8.19777L11.0482 3.3944C12.766 1.97986 15.234 1.97986 16.9518 3.3944L22.7852 8.19777C23.8704 9.09141 24.5 10.4294 24.5 11.8422ZM9.67501 17.8613C9.23013 17.6725 8.7165 17.8802 8.52777 18.325C8.33903 18.7699 8.54667 19.2835 8.99154 19.4723C10.892 20.2785 12.457 20.7124 14.0493 20.7084C15.6425 20.7044 17.1762 20.2623 19.0131 19.4702C19.4568 19.2789 19.6614 18.764 19.4701 18.3203C19.2787 17.8765 18.7639 17.6719 18.3201 17.8633C16.5827 18.6125 15.2999 18.9553 14.045 18.9584C12.7892 18.9616 11.4746 18.6247 9.67501 17.8613Z" fill="#181E22"/>
</svg>
